<?xml version="1.0" standalone="no"?><svg xmlns="http://www.w3.org/2000/svg" viewBox="0 0 1440 320"><path fill="#a2d9ff" fill-opacity="1" d="M0,288L40,250.7C80,213,160,139,240,128C320,117,400,171,480,213.3C560,256,640,288,720,266.7C800,245,880,171,960,170.7C1040,171,1120,245,1200,240C1280,235,1360,149,1400,106.7L1440,64L1440,320L1400,320C1360,320,1280,320,1200,320C1120,320,1040,320,960,320C880,320,800,320,720,320C640,320,560,320,480,320C400,320,320,320,240,320C160,320,80,320,40,320L0,320Z"></path></svg>